<svg id="Layer_3" data-name="Layer 3" xmlns="http://www.w3.org/2000/svg" viewBox="0 0 4724 4724">
  <defs>
    <style>
      .cls-1 {
        isolation: isolate;
      }

      .cls-1, .cls-2 {
        fill: #9fda00;
        stroke-width: 0px;
      }
    </style>
  </defs>
  <path class="cls-1" d="M963.59,4724V0h581.6v1692.12c270.03-313.05,610.71-469.58,1022.15-469.58,252.78,0,472.46,49.98,658.84,149.94,186.39,99.96,319.82,238.13,400.22,414.31,80.3,176.28,120.55,432.03,120.55,767.33v2169.86h-581.6v-2170.79c0-290.24-62.59-501.57-187.68-633.8-125.18-132.23-302.11-198.35-530.97-198.35-171.18,0-332.06,44.7-482.84,133.9-150.77,89.21-258.25,210.22-322.42,362.85-64.17,152.63-96.25,363.41-96.25,632.14v1874.06h-581.6Z"/>
  <path class="cls-2" d="M4623.14,2261.37c-3.22-71.85-27.49-139.69-79.33-191.53-258.57-258.57-517.14-517.14-775.71-775.71-258.57-258.57-517.14-517.14-775.71-775.71-142.74-142.74-285.48-285.48-428.22-428.22-3.41-3.64-6.94-7.21-10.66-10.66-19.13-19.13-41.91-35.35-66.66-48.08-38.19-20.8-80.7-33.23-124.87-31.26-32.01-1.21-62.17,4.37-90.49,16.7-12.41,4.28-24.5,9.39-36.18,15.4-24.3,11.16-45.94,26.87-64.86,47.24-258.57,258.57-517.14,517.14-775.71,775.71-258.57,258.57-517.14,517.14-775.71,775.71-146.3,146.3-292.59,292.59-438.89,438.89-49.12,49.12-79.33,122.08-79.33,191.53-1.41,37.29,6.37,72.08,23.33,104.36,10.92,33.58,29.59,62.64,56,87.17,51.62,47.39,119.39,82.56,191.53,79.33,71.85-3.22,139.69-27.49,191.53-79.33,258.57-258.57,517.14-517.14,775.71-775.71,258.57-258.57,517.14-517.14,775.71-775.71,82.45-82.45,164.91-164.91,247.36-247.36,194.73,194.73,389.45,389.46,584.18,584.18,258.57,258.57,517.14,517.14,775.71,775.71,146.3,146.3,292.59,292.59,438.89,438.89,49.12,49.12,122.08,79.33,191.53,79.33,37.29,1.41,72.08-6.37,104.36-23.33,33.58-10.92,62.64-29.59,87.17-56,47.39-51.62,82.56-119.39,79.33-191.53Z"/>
</svg>